<?xml version="1.0" encoding="UTF-8"?>
<svg version="1.1" xmlns="http://www.w3.org/2000/svg" width="780" height="780">
<path d="M0 0 C257.4 0 514.8 0 780 0 C780 257.4 780 514.8 780 780 C522.6 780 265.2 780 0 780 C0 522.6 0 265.2 0 0 Z " fill="#000000" transform="translate(0,0)"/>
<path d="M0 0 C0.61568848 0.49999512 1.23137695 0.99999023 1.86572266 1.51513672 C14.8332066 12.12489631 26.72415965 23.74510868 37 37 C37.77472656 37.95777344 38.54945313 38.91554688 39.34765625 39.90234375 C76.93945472 87.1452854 95.87416901 149.20510824 89.27734375 209.41015625 C82.92477091 259.44132589 63.50652824 305.14722526 30 343 C29.21753906 343.89332031 28.43507813 344.78664063 27.62890625 345.70703125 C19.38659645 355.00641371 10.7385117 363.2802932 1 371 C-0.07238043 371.87406123 -1.14397048 372.7490929 -2.21484375 373.625 C-24.88973177 392.02322358 -50.61100626 405.09950745 -78 415 C-79.27381528 415.48207586 -80.54729803 415.96503214 -81.8203125 416.44921875 C-145.26358308 439.3552743 -216.23434887 430.81799202 -276.59375 403.515625 C-277.99693481 402.89059082 -277.99693481 402.89059082 -279.4284668 402.25292969 C-282 401 -282 401 -284.08129883 399.59863281 C-286.13161444 398.24943012 -287.57952742 397.44213141 -290 397 C-294.23446478 398.10930827 -297.86785742 400.14812059 -301.6875 402.25 C-303.92384948 403.39954227 -306.16349108 404.54270075 -308.40625 405.6796875 C-310.07494141 406.53385254 -310.07494141 406.53385254 -311.77734375 407.40527344 C-336.06589826 419.42442784 -363.57289707 425.39682234 -390.375 428.25 C-391.10992676 428.33024414 -391.84485352 428.41048828 -392.60205078 428.49316406 C-397.84826857 428.9862512 -403.05870072 429.03674481 -408.32275391 429.01855469 C-409.06258011 429.01721527 -409.80240631 429.01587585 -410.56465149 429.01449585 C-412.37643744 429.01102202 -414.18821968 429.00569831 -416 429 C-416.0686606 396.43048671 -416.12164336 363.86099454 -416.15319599 331.29142523 C-416.15694743 327.43313428 -416.16083047 323.57484347 -416.16479492 319.71655273 C-416.16558185 318.94854127 -416.16636878 318.1805298 -416.16717956 317.38924526 C-416.18018 305.00654743 -416.20380375 292.62389202 -416.23145839 280.24121923 C-416.25966278 267.50473139 -416.27620776 254.76826554 -416.28226548 242.03174776 C-416.28635102 234.19317701 -416.29918199 226.35472624 -416.3237494 218.51619249 C-416.34170863 212.47266019 -416.34332825 206.42922781 -416.33932304 200.38566589 C-416.34013865 197.93055935 -416.34597341 195.47544765 -416.35761642 193.02036858 C-416.45030752 172.44056197 -415.20577883 151.876311 -410.3125 131.8125 C-410.0561377 130.74265869 -409.79977539 129.67281738 -409.53564453 128.57055664 C-401.75680825 97.32332763 -387.04381222 67.20907339 -367 42 C-366.06089494 40.78148344 -365.12211152 39.56271896 -364.18359375 38.34375 C-352.7768575 23.72818587 -339.75468388 10.25957136 -325 -1 C-324.04738281 -1.76957031 -323.09476562 -2.53914063 -322.11328125 -3.33203125 C-294.35654566 -25.44687077 -262.22225007 -40.14598763 -228 -49 C-226.80503906 -49.32242676 -225.61007812 -49.64485352 -224.37890625 -49.97705078 C-214.93531361 -52.48281686 -205.57949487 -54.15493534 -195.875 -55.25 C-195.14966064 -55.33371857 -194.42432129 -55.41743713 -193.67700195 -55.50369263 C-124.97892593 -63.2861008 -53.7781724 -43.88266512 0 0 Z " fill="#FEDD2C" transform="translate(679,203)"/>
<path d="M0 0 C0.63035156 0.56460938 1.26070313 1.12921875 1.91015625 1.7109375 C1.39743164 2.02732178 0.88470703 2.34370605 0.35644531 2.66967773 C-9.79535228 8.95374501 -19.73466698 15.27302807 -29.08984375 22.7109375 C-29.99734375 23.42636719 -30.90484375 24.14179688 -31.83984375 24.87890625 C-38.87071618 30.52158086 -45.55076231 36.51203949 -52.08984375 42.7109375 C-52.59161133 43.18402344 -53.09337891 43.65710938 -53.61035156 44.14453125 C-61.60895462 51.73677441 -68.53494625 59.85082164 -75.08984375 68.7109375 C-75.82485107 69.69537842 -75.82485107 69.69537842 -76.57470703 70.69970703 C-84.37675922 81.21028264 -91.11016374 92.0685129 -97.08984375 103.7109375 C-97.47769043 104.46600586 -97.86553711 105.22107422 -98.26513672 105.99902344 C-106.62581615 122.49602864 -113.10796858 139.52245125 -117.40234375 157.5234375 C-117.74785278 158.94088257 -117.74785278 158.94088257 -118.1003418 160.38696289 C-122.6721837 180.78660535 -123.53739445 201.49969877 -123.5222168 222.32446289 C-123.53126154 224.87984685 -123.54159526 227.43522652 -123.55310059 229.99060059 C-123.57477089 235.43373105 -123.58772474 240.87676336 -123.59222984 246.31993294 C-123.59875887 254.18928002 -123.6218121 262.05851478 -123.64857314 269.92781597 C-123.69158369 282.70308206 -123.72169619 295.47834334 -123.7434082 308.25366211 C-123.76449584 320.64496209 -123.79183786 333.03622296 -123.82739258 345.42749023 C-123.8295914 346.194554 -123.83179023 346.96161777 -123.83405568 347.75192589 C-123.84512727 351.60103478 -123.85631971 355.45014331 -123.86757219 359.29925168 C-123.96039189 391.10311465 -124.03193805 422.90699117 -124.08984375 454.7109375 C-126.32201402 454.71994783 -128.55419486 454.72636295 -130.78637695 454.73168945 C-132.65094292 454.73746758 -132.65094292 454.73746758 -134.55317688 454.74336243 C-138.83745413 454.70408325 -143.02574272 454.39769666 -147.27734375 453.8984375 C-148.07285645 453.80860596 -148.86836914 453.71877441 -149.68798828 453.6262207 C-208.67117616 446.73306065 -262.17377945 422.98532895 -305.08984375 381.7109375 C-305.5811377 381.24155762 -306.07243164 380.77217773 -306.57861328 380.28857422 C-313.30198898 373.83639351 -319.40230903 367.0854708 -325.08984375 359.7109375 C-325.5988623 359.06189453 -326.10788086 358.41285156 -326.63232422 357.74414062 C-341.04562238 339.27828593 -352.03848952 319.27725086 -361.08984375 297.7109375 C-361.56808594 296.61394531 -362.04632813 295.51695312 -362.5390625 294.38671875 C-372.93938559 269.28814725 -377.31623987 240.67968295 -377.33984375 213.6484375 C-377.34051849 212.94840607 -377.34119324 212.24837463 -377.34188843 211.52713013 C-377.24250402 146.03280522 -349.71939142 86.2306582 -303.80541992 40.23632812 C-238.93843615 -23.6778073 -138.57968906 -47.52328747 0 0 Z " fill="#317DFE" transform="translate(387.08984375,177.2890625)"/>
<path d="M0 0 C0 0.33 0 0.66 0 1 C-4.95 1 -9.9 1 -15 1 C-14.99815641 2.3027632 -14.99631283 3.60552639 -14.99441338 4.94776726 C-14.95100935 35.93833497 -14.9180749 66.92889441 -14.89786934 97.91948526 C-14.89536821 101.74173372 -14.89277954 105.56398211 -14.89013672 109.38623047 C-14.8896121 110.14710626 -14.88908748 110.90798206 -14.88854696 111.69191469 C-14.87986669 123.97909786 -14.86410995 136.26626213 -14.84569441 148.55343412 C-14.82692894 161.18027842 -14.81586929 173.8071129 -14.81182301 186.43397057 C-14.80909168 194.21264916 -14.8004949 201.99127433 -14.78416707 209.76993646 C-14.77225113 215.75506566 -14.7711053 221.74014981 -14.77378464 227.72529221 C-14.77323826 230.16559679 -14.76931184 232.60590356 -14.76158905 235.04619598 C-14.72108055 248.51674069 -15.11962445 261.65291372 -17 275 C-17.14877531 276.08778685 -17.29755062 277.17557369 -17.45083427 278.29632378 C-20.13082345 297.30959713 -24.77071135 316.58790311 -33 334 C-33.77762183 335.7186242 -34.55493236 337.43738928 -35.33203125 339.15625 C-45.96875311 362.35262856 -59.5917494 383.30725712 -77 402 C-78.17141454 403.35006164 -79.3382942 404.70407514 -80.5 406.0625 C-86.85002305 413.31550798 -93.68027836 419.75455495 -101.21484375 425.765625 C-102.9818265 427.18317638 -104.72726746 428.62835908 -106.44140625 430.109375 C-143.87186943 462.20936533 -193.8058104 480.07963979 -242.375 485.25 C-243.10992676 485.33024414 -243.84485352 485.41048828 -244.60205078 485.49316406 C-249.84826857 485.9862512 -255.05870072 486.03674481 -260.32275391 486.01855469 C-261.06258011 486.01721527 -261.80240631 486.01587585 -262.56465149 486.01449585 C-264.37643744 486.01102202 -266.18821968 486.00569831 -268 486 C-268.0686606 453.43048671 -268.12164336 420.86099454 -268.15319599 388.29142523 C-268.15694743 384.43313428 -268.16083047 380.57484347 -268.16479492 376.71655273 C-268.16558185 375.94854127 -268.16636878 375.1805298 -268.16717956 374.38924526 C-268.18018 362.00654743 -268.20380375 349.62389202 -268.23145839 337.24121923 C-268.25966278 324.50473139 -268.27620776 311.76826554 -268.28226548 299.03174776 C-268.28635102 291.19317701 -268.29918199 283.35472624 -268.3237494 275.51619249 C-268.34170863 269.47266019 -268.34332825 263.42922781 -268.33932304 257.38566589 C-268.34013865 254.93055935 -268.34597341 252.47544765 -268.35761642 250.02036858 C-268.45030752 229.44056197 -267.20577883 208.876311 -262.3125 188.8125 C-262.0561377 187.74265869 -261.79977539 186.67281738 -261.53564453 185.57055664 C-253.75680825 154.32332763 -239.04381222 124.20907339 -219 99 C-218.06089494 97.78148344 -217.12211152 96.56271896 -216.18359375 95.34375 C-204.7768575 80.72818587 -191.75468388 67.25957136 -177 56 C-176.04738281 55.23042969 -175.09476562 54.46085937 -174.11328125 53.66796875 C-146.35654566 31.55312923 -114.22225007 16.85401237 -80 8 C-78.80503906 7.67757324 -77.61007812 7.35514648 -76.37890625 7.02294922 C-66.93395226 4.51682191 -57.57947041 2.85260733 -47.875 1.75 C-47.15830139 1.66528442 -46.44160278 1.58056885 -45.70318604 1.49328613 C-30.4476626 -0.28367266 -15.34360003 -0.43983859 0 0 Z " fill="#FE6446" transform="translate(531,146)"/>
</svg>
