<?xml version="1.0" encoding="UTF-8"?>
<svg version="1.1" xmlns="http://www.w3.org/2000/svg" width="780" height="780">
<path d="M0 0 C4.82085156 2.59049912 4.82085156 2.59049912 10.11035156 3.52587891 C13.2106124 2.19497284 13.2106124 2.19497284 16.48535156 0.15087891 C51.57876045 -19.72624722 94.17177148 -27.96731904 134.17285156 -27.78662109 C135.44153076 -27.78388687 135.44153076 -27.78388687 136.73583984 -27.78109741 C200.04620758 -27.55271469 262.98279687 -4.59143435 309.40722656 39.01025391 C311.61651169 41.06629382 313.86033539 43.02688162 316.17285156 44.96337891 C354.50358715 78.48305509 377.62633588 130.33673559 386.11035156 179.52587891 C386.30733643 180.62150146 386.30733643 180.62150146 386.50830078 181.73925781 C390.62034196 205.65599661 389.61877534 232.77234301 385.11035156 256.52587891 C384.9440625 257.41807129 384.77777344 258.31026367 384.60644531 259.22949219 C376.21815425 302.77870328 356.27133384 342.31929263 326.39941406 375.01416016 C324.85774927 376.70578211 323.33189712 378.41193541 321.82128906 380.13134766 C317.20669947 385.37231625 312.46199386 390.05231263 307.11035156 394.52587891 C306.18867187 395.33541016 305.26699219 396.14494141 304.31738281 396.97900391 C265.48463256 430.937583 216.15179641 451.45676656 165.11035156 457.52587891 C163.92578369 457.66944824 163.92578369 457.66944824 162.71728516 457.81591797 C153.82633888 458.7621602 144.91686523 458.76940465 135.98535156 458.77587891 C134.72596268 458.77689102 134.72596268 458.77689102 133.44113159 458.77792358 C93.27603579 458.72687697 52.86062097 449.97710688 17.22070312 431.05175781 C12.39926251 428.45541066 12.39926251 428.45541066 7.11035156 427.52587891 C4.58837733 428.56730591 2.3568554 429.650103 -0.01464844 430.96337891 C-27.43762028 445.35160174 -57.17531721 453.87377369 -87.88964844 457.52587891 C-88.67936035 457.6215918 -89.46907227 457.71730469 -90.28271484 457.81591797 C-99.17366112 458.7621602 -108.08313477 458.76940465 -117.01464844 458.77587891 C-118.27403732 458.77689102 -118.27403732 458.77689102 -119.55886841 458.77792358 C-172.76830409 458.71029866 -227.01934109 442.64542806 -269.88964844 410.52587891 C-270.75420654 409.89020996 -270.75420654 409.89020996 -271.63623047 409.24169922 C-278.57567954 404.13379356 -285.10526972 398.6868401 -291.41699219 392.81103516 C-293.48824943 390.89684008 -295.59879545 389.0800028 -297.76464844 387.27587891 C-338.37248965 351.71300371 -363.0531242 297.31764447 -369.88964844 244.52587891 C-369.98391113 243.83679443 -370.07817383 243.14770996 -370.17529297 242.43774414 C-375.59277617 197.12568206 -366.57861499 151.38418543 -346.88964844 110.52587891 C-346.57302246 109.86523438 -346.25639648 109.20458984 -345.93017578 108.52392578 C-317.30570752 49.69762797 -262.84253202 6.87515578 -201.96386719 -14.50146484 C-186.90282323 -19.63169733 -171.5799336 -22.92918208 -155.88964844 -25.47412109 C-155.10332031 -25.60689453 -154.31699219 -25.73966797 -153.50683594 -25.87646484 C-102.58012836 -34.11733207 -45.39871607 -24.10742227 0 0 Z " fill="#FFDD2D" transform="translate(380.8896484375,173.47412109375)"/>
<path d="M0 0 C0.6609668 0.32532715 1.32193359 0.6506543 2.00292969 0.98583984 C5.12816907 2.57823948 7.54344599 4.14138577 9.9375 6.6875 C9.34437012 7.05399658 8.75124023 7.42049316 8.14013672 7.7980957 C-3.77713004 15.19132168 -15.3162553 22.66648073 -26.0625 31.6875 C-26.62839844 32.15333496 -27.19429688 32.61916992 -27.77734375 33.09912109 C-40.77854843 43.80195023 -52.72339061 55.36449323 -63.0625 68.6875 C-64.2071875 70.08935547 -64.2071875 70.08935547 -65.375 71.51953125 C-96.74795095 110.68544277 -115.17036659 161.6143149 -115.22071838 211.84294128 C-115.22565636 212.90998002 -115.23059434 213.97701875 -115.23568195 215.07639199 C-115.25093604 218.62148319 -115.2593845 222.16655646 -115.26782227 225.71166992 C-115.27741031 228.26498571 -115.28742093 230.81829994 -115.29782104 233.37161255 C-115.31920277 238.85316122 -115.33766611 244.33470715 -115.35342598 249.81627464 C-115.37621674 257.74152893 -115.40434634 265.66675735 -115.43374526 273.59198955 C-115.48130892 286.45267232 -115.52460321 299.31336572 -115.56518555 312.17407227 C-115.60459781 324.66105984 -115.6460376 337.148038 -115.69018555 349.63500977 C-115.69427196 350.79112261 -115.69427196 350.79112261 -115.69844092 351.97059127 C-115.71212134 355.83748886 -115.72584143 359.70438631 -115.73958123 363.5712837 C-115.85336948 395.61000297 -115.96021751 427.64874186 -116.0625 459.6875 C-119.09343856 459.70053657 -122.12432024 459.7100359 -125.15527344 459.7175293 C-126.00689056 459.7215551 -126.85850769 459.7255809 -127.7359314 459.7297287 C-134.32788171 459.74193454 -140.7729905 459.35943374 -147.3125 458.5 C-148.35841309 458.3669043 -149.40432617 458.23380859 -150.48193359 458.09667969 C-192.39933327 452.45722817 -234.06945843 437.15597078 -268.0625 411.6875 C-268.92705811 411.05183105 -268.92705811 411.05183105 -269.80908203 410.40332031 C-276.74853111 405.29541466 -283.27812128 399.8484612 -289.58984375 393.97265625 C-291.66110099 392.05846117 -293.77164701 390.24162389 -295.9375 388.4375 C-336.54534121 352.87462481 -361.22597577 298.47926557 -368.0625 245.6875 C-368.1567627 244.99841553 -368.25102539 244.30933105 -368.34814453 243.59936523 C-373.76562773 198.28730316 -364.75146655 152.54580652 -345.0625 111.6875 C-344.74587402 111.02685547 -344.42924805 110.36621094 -344.10302734 109.68554688 C-315.47855909 50.85924906 -261.01538358 8.03677688 -200.13671875 -13.33984375 C-185.0756748 -18.47007623 -169.75278516 -21.76756099 -154.0625 -24.3125 C-153.27617187 -24.44527344 -152.48984375 -24.57804688 -151.6796875 -24.71484375 C-100.94449732 -32.92471998 -45.74280721 -22.57696714 0 0 Z " fill="#327EFF" transform="translate(379.0625,172.3125)"/>
<path d="M0 0 C0.91499268 0.00310181 1.82998535 0.00620361 2.77270508 0.00939941 C5.00214965 0.01740852 7.23152603 0.02865327 9.4609375 0.04296875 C9.50667971 32.42578742 9.54201699 64.80859681 9.56306816 97.1914403 C9.56556922 101.02484371 9.5681579 104.85824707 9.57080078 108.69165039 C9.5713254 109.45472987 9.57185002 110.21780935 9.57239054 111.00401244 C9.58106502 123.31826828 9.59681849 135.63250522 9.61524309 147.94674989 C9.63402481 160.60637904 9.6450716 173.26599837 9.64911449 185.92564088 C9.6518425 193.72120098 9.66042076 201.51670763 9.67677043 209.31225125 C9.688711 215.31569019 9.68982819 221.31908432 9.68715286 227.32253647 C9.68769809 229.7664186 9.69160869 232.21030296 9.69934845 234.6541729 C9.75475346 253.06915571 9.45577318 271.59201731 5.2109375 289.60546875 C4.99477783 290.55397705 4.77861816 291.50248535 4.5559082 292.47973633 C-5.02522134 333.47877302 -23.74804188 371.12756214 -52.5390625 402.04296875 C-53.71047704 403.39303039 -54.8773567 404.74704389 -56.0390625 406.10546875 C-62.38908555 413.35847673 -69.21934086 419.7975237 -76.75390625 425.80859375 C-78.520889 427.22614513 -80.26632996 428.67132783 -81.98046875 430.15234375 C-90.12535239 437.13731438 -99.06676753 442.81480661 -108.13085938 448.52539062 C-109.62005642 449.4638384 -111.10635599 450.40692349 -112.58789062 451.35742188 C-142.69886408 470.66737879 -178.30796204 480.57963966 -213.5390625 485.04296875 C-214.53808594 485.17574219 -215.53710938 485.30851562 -216.56640625 485.4453125 C-222.50082896 486.11282076 -228.41571171 486.08064218 -234.37890625 486.0625 C-235.26058472 486.06109009 -236.14226318 486.05968018 -237.05065918 486.05822754 C-239.21346317 486.05456549 -241.37626371 486.04896136 -243.5390625 486.04296875 C-243.6077231 453.47345546 -243.66070586 420.90396329 -243.69225849 388.33439398 C-243.69600993 384.47610303 -243.69989297 380.61781222 -243.70385742 376.75952148 C-243.70464435 375.99151002 -243.70543128 375.22349855 -243.70624206 374.43221401 C-243.7192425 362.04951618 -243.74286625 349.66686077 -243.77052089 337.28418798 C-243.79872528 324.54770014 -243.81527026 311.81123429 -243.82132798 299.07471651 C-243.82541352 291.23614576 -243.83824449 283.39769499 -243.8628119 275.55916124 C-243.88077113 269.51562894 -243.88239075 263.47219656 -243.87838554 257.42863464 C-243.87920115 254.9735281 -243.88503591 252.5184164 -243.89667892 250.06333733 C-243.98891557 229.58442839 -242.91677268 209.01064516 -237.7265625 189.10546875 C-237.46794434 188.07736084 -237.20932617 187.04925293 -236.94287109 185.98999023 C-223.92597198 135.37703818 -194.05279634 88.15736662 -152.5390625 56.04296875 C-151.64058594 55.30433594 -150.74210937 54.56570312 -149.81640625 53.8046875 C-139.09668118 45.1752382 -127.32812562 38.10428956 -115.5390625 31.04296875 C-114.81928223 30.61177734 -114.09950195 30.18058594 -113.35791016 29.73632812 C-80.38597806 10.31205861 -38.14384471 -0.24922644 0 0 Z " fill="#FE6446" transform="translate(506.5390625,145.95703125)"/>
</svg>
