<svg role="img" viewBox="0 0 250 250" xmlns="http://www.w3.org/2000/svg" id="Langchain--Streamline-Simple-Icons.svg" height="250" width="250"><desc>Langchain Streamline Icon: https://streamlinehq.com</desc><title>LangChain</title><path d="M63.52916666666666 61.640625C28.49895833333333 61.640625 0 90.06458333333333 0 125s28.5 63.35937499999999 63.52916666666666 63.35937499999999h122.94166666666666C221.50104166666665 188.35937499999997 250 159.93541666666664 250 125s-28.5 -63.35937499999999 -63.52916666666666 -63.35937499999999ZM62.264583333333334 81.78125c5.135416666666666 0.12916666666666665 10.625 2.5999999999999996 13.260416666666664 6.4875 3.826041666666667 4.783333333333333 4.977083333333333 11.112499999999999 9.316666666666666 15.554166666666667 5.8374999999999995 6.372916666666667 12.489583333333334 11.984375 17.876041666666666 18.770833333333332 5.095833333333333 6.202083333333333 8.735416666666666 13.476041666666667 11.9125 20.807291666666664 1.2958333333333332 2.4322916666666665 1.309375 5.418749999999999 3.2291666666666665 7.496874999999999 0.9458333333333333 1.2541666666666664 5.56875 4.669791666666666 4.565625 5.880208333333333 0.578125 1.2541666666666664 4.897916666666666 2.979166666666666 3.398958333333333 4.194791666666666 -2.025 0.41666666666666663 -4.301041666666666 0.49583333333333335 -5.85 -1.11875 -0.5718749999999999 1.3125 -1.9062499999999998 0.6208333333333333 -2.936458333333333 0.45a41.666666666666664 41.666666666666664 0 0 0 -0.2604166666666667 0.7666666666666666c-3.425 0.22812499999999997 -5.9937499999999995 -3.2562499999999996 -7.624999999999999 -5.885416666666666 -3.2406249999999996 -1.75 -6.91875 -2.814583333333333 -10.229166666666666 -4.645833333333333 -0.18958333333333333 3.0156249999999996 0.47083333333333327 6.755208333333332 -2.40625 8.701041666666667 -0.14583333333333331 5.796875 8.7875 0.6833333333333333 9.60625 5.004166666666666 -0.6354166666666666 0.06979166666666667 -1.3395833333333331 -0.09895833333333333 -1.8479166666666667 0.3885416666666666 -2.3322916666666664 2.2624999999999997 -5.005208333333333 -1.7135416666666667 -7.692708333333333 -0.07291666666666666 -3.608333333333333 1.8124999999999998 -3.966666666666667 3.292708333333333 -8.433333333333334 3.666666666666666 -0.24687499999999998 -0.37395833333333334 -0.14895833333333333 -0.6166666666666667 0.06145833333333333 -0.8447916666666667 1.2572916666666667 -1.4572916666666667 1.3489583333333333 -3.172916666666666 3.495833333333333 -3.794791666666667 -2.2104166666666667 -0.34791666666666665 -4.061458333333333 0.8677083333333333 -5.922916666666667 1.8302083333333332 -2.419791666666667 0.9895833333333333 -2.4 -2.230208333333333 -6.122916666666666 0.17083333333333334 -0.41250000000000003 -0.33541666666666664 -0.21666666666666665 -0.640625 0.01875 -0.9 0.9458333333333333 -1.153125 2.189583333333333 -1.3229166666666665 3.5937499999999996 -1.2583333333333333 -6.90625 -3.839583333333333 -10.157291666666666 4.694791666666666 -13.346875 0.45 -0.9583333333333333 0.253125 -1.3177083333333333 1.1125 -1.9218749999999998 1.7208333333333334 -0.5208333333333334 -0.5708333333333333 -0.128125 -1.2625 -0.10312500000000001 -1.934375 -0.6229166666666667 -0.29166666666666663 -1.4124999999999999 -0.4270833333333333 -1.228125 -1.4229166666666666 -1.2197916666666666 -0.4114583333333333 -2.0708333333333333 0.30729166666666663 -2.979166666666666 0.9916666666666667 -0.8197916666666667 -0.6333333333333333 0.5541666666666666 -1.5541666666666665 0.8083333333333333 -2.2135416666666665 0.73125 -1.2666666666666666 2.3958333333333335 -0.2604166666666667 3.2406249999999996 -1.1729166666666666 2.402083333333333 -1.3624999999999998 5.75 0.8479166666666667 8.494791666666666 0.4739583333333333 2.1145833333333335 0.26562499999999994 4.733333333333333 -1.9010416666666665 3.6729166666666666 -4.0625 -2.261458333333333 -2.8822916666666667 -1.8645833333333333 -6.652083333333333 -1.915625 -10.098958333333334 -0.2791666666666667 -2.009375 -5.114583333333333 -4.564583333333333 -6.512499999999999 -6.731249999999999 -1.728125 -1.9510416666666666 -3.0729166666666665 -4.215625 -4.419791666666667 -6.439583333333332 -4.860416666666667 -9.383333333333333 -3.3312499999999994 -21.441666666666663 -9.455208333333331 -30.153124999999996 -2.7708333333333335 1.5270833333333333 -6.380208333333333 0.8062499999999999 -8.768749999999999 -1.2395833333333333 -1.289583333333333 1.171875 -1.3458333333333334 2.7062499999999994 -1.4479166666666667 4.334375 -3.0937499999999996 -3.0854166666666667 -2.7010416666666663 -8.915624999999999 -0.22916666666666663 -12.348958333333332 1.009375 -1.35625 2.2156249999999997 -2.471875 3.5625 -3.4541666666666666 0.30416666666666664 -0.221875 0.40729166666666666 -0.4364583333333333 0.40104166666666663 -0.778125 1.2229166666666667 -5.486458333333332 6.004166666666666 -7.698958333333333 11.139583333333333 -7.569791666666666m129.240625 4.791666666666667c5.807291666666666 0 11.25625 2.2489583333333334 15.354166666666666 6.335416666666666s6.354166666666666 9.526041666666666 6.354166666666666 15.316666666666665c0 5.791666666666667 -2.2572916666666667 11.229166666666666 -6.354166666666666 15.310416666666665v0.0062499999999999995l-9.395833333333334 9.369791666666666a21.666666666666668 21.666666666666668 0 0 1 -8.955208333333333 5.381249999999999l-0.17083333333333334 0.04895833333333333 -0.06041666666666666 0.17083333333333334a21.354166666666664 21.354166666666664 0 0 1 -4.937499999999999 7.6125l-9.39375 9.369791666666666c-4.097916666666666 4.0875 -9.552083333333334 6.336458333333333 -15.359374999999998 6.336458333333333s-11.25625 -2.25 -15.354166666666666 -6.336458333333333c-8.468749999999998 -8.444791666666665 -8.468749999999998 -22.18125 0 -30.62708333333333l9.394791666666666 -9.369791666666666a21.416666666666664 21.416666666666664 0 0 1 8.9375 -5.357291666666666l0.17708333333333334 -0.05520833333333333 0.06041666666666666 -0.16458333333333333a21.562499999999996 21.562499999999996 0 0 1 4.95 -7.642708333333333l9.39375 -9.369791666666666c4.097916666666666 -4.0875 9.553125 -6.336458333333333 15.359374999999998 -6.336458333333333zm0 9.338541666666666a12.291666666666666 12.291666666666666 0 0 0 -8.737499999999999 3.6062499999999997l-9.39375 9.369791666666666a12.302083333333334 12.302083333333334 0 0 0 -3.5697916666666667 9.6375l0.05520833333333333 0.5958333333333333c0.33645833333333336 2.7624999999999997 1.5520833333333333 5.2541666666666655 3.514583333333333 7.205208333333332 1.3541666666666667 1.3499999999999999 2.846875 2.2020833333333334 4.657291666666667 2.7979166666666666a9.375 9.375 0 0 1 0.14583333333333331 1.6479166666666667 9.208333333333332 9.208333333333332 0 0 1 -2.7177083333333334 6.5666666666666655l-0.5770833333333333 0.5770833333333333c-3.138541666666667 -1.0708333333333333 -5.755208333333333 -2.6354166666666665 -8.118749999999999 -4.991666666666666a21.458333333333332 21.458333333333332 0 0 1 -6.001041666666666 -11.424999999999999l-0.10312500000000001 -0.6020833333333333 -0.48020833333333335 0.3833333333333333a11.458333333333334 11.458333333333334 0 0 0 -0.9124999999999999 0.8270833333333333l-9.399999999999999 9.369791666666666c-4.815625 4.802083333333333 -4.815625 12.624999999999998 0 17.427083333333332 2.4072916666666666 2.4010416666666665 5.572916666666667 3.604166666666666 8.74375 3.605208333333333 3.169791666666667 0 6.330208333333333 -1.2041666666666666 8.737499999999999 -3.6062499999999997l9.394791666666666 -9.369791666666666c4.815625 -4.802083333333333 4.815625 -12.617708333333333 0 -17.427083333333332a12.187499999999998 12.187499999999998 0 0 0 -4.548958333333333 -2.8635416666666664 10.416666666666666 10.416666666666666 0 0 1 -0.14583333333333331 -1.6781249999999999c0 -2.698958333333333 1.065625 -5.260416666666666 3.021875 -7.211458333333333 3.1447916666666664 1.0708333333333333 5.937499999999999 2.8062499999999995 8.29375 5.15625 3.1322916666666667 3.123958333333333 5.202083333333333 7.072916666666667 5.995833333333333 11.424999999999999l0.109375 0.6020833333333333 0.4739583333333333 -0.3885416666666666a11.458333333333334 11.458333333333334 0 0 0 0.9239583333333333 -0.8270833333333333l9.395833333333334 -9.370833333333332c4.814583333333333 -4.802083333333333 4.820833333333333 -12.629166666666665 0 -17.432291666666664a12.291666666666666 12.291666666666666 0 0 0 -8.744791666666666 -3.6062499999999997Zm-103.88541666666667 53.715624999999996 -0.0062499999999999995 0.0062499999999999995c-0.8260416666666666 3.20625 -1.0916666666666666 8.664583333333333 -5.270833333333333 8.822916666666666 -0.34375 1.8499999999999999 1.2791666666666666 2.546875 2.765625 1.9520833333333334 1.4687499999999998 -0.671875 2.167708333333333 0.5291666666666666 2.6635416666666663 1.7260416666666665 2.267708333333333 0.3302083333333333 5.6187499999999995 -0.7552083333333333 5.745833333333333 -3.4354166666666663 -3.3854166666666665 -1.9447916666666667 -4.430208333333333 -5.643749999999999 -5.897916666666667 -9.071875" fill="#000000" stroke-width="1"></path></svg>